# xmcd
#
# Track frame offsets:
#	150
#	4276
#	27454
#	45425
#	60351
#	79535
#	98712
#	119188
#	139855
#	157963
#	177575
#
# Disc length: 2671 seconds
#
# Revision: 0
# Processed by: cddbd v1.5.2PL0 Copyright (c) Steve Scherf et al.
# Submitted via: audiograbber 1.83.01
#
DISCID=8b0a6d0b
DTITLE=Dying - Born From Impurity
DYEAR=2009
DGENRE=Death Metal
TTITLE0=Fetus Ritual
TTITLE1=Heirs of a curse
TTITLE2=Experiment
TTITLE3=Existence misgivings
TTITLE4=Bloody supper
TTITLE5=From darkness to eternity
TTITLE6=Death or murder
TTITLE7=Buried faith
TTITLE8=Ill intentions
TTITLE9=Damned to live
TTITLE10=Dying for a piece of land
EXTD=
EXTT0=
EXTT1=
EXTT2=
EXTT3=
EXTT4=
EXTT5=
EXTT6=
EXTT7=
EXTT8=
EXTT9=
EXTT10=
PLAYORDER=
